name Walk6.mot
datacolumns 19
datarows 30
range 3.18000000 3.20900000
endheader

                time	   L_ground_force_vx	   L_ground_force_vy	   L_ground_force_vz	   L_ground_force_px	   L_ground_force_py	   L_ground_force_pz	   R_ground_force_vx	   R_ground_force_vy	   R_ground_force_vz	   R_ground_force_px	   R_ground_force_py	   R_ground_force_pz	   L_ground_torque_x	   L_ground_torque_y	   L_ground_torque_z	   R_ground_torque_x	   R_ground_torque_y	   R_ground_torque_z	
          3.18000000	          0.00000000	          0.00000000	          0.00000000	          0.00000000	          0.00000000	          0.00000000	         17.99295890	         67.29331167	          5.90853719	          0.50864481	          0.00000000	          0.09554437	          0.00000000	          0.00000000	          0.00000000	          0.00000000	         -4.25999245	          0.00000000	
          3.18100000	          0.00000000	          0.00000000	          0.00000000	          0.00000000	          0.00000000	          0.00000000	         16.13509772	         64.00335316	          5.85325721	          0.50906804	          0.00000000	          0.09692955	          0.00000000	          0.00000000	          0.00000000	          0.00000000	         -3.91097370	          0.00000000	
          3.18200000	          0.00000000	          0.00000000	          0.00000000	          0.00000000	          0.00000000	          0.00000000	         14.41192252	         60.79160610	          5.83309679	          0.50871773	          0.00000000	          0.09820944	          0.00000000	          0.00000000	          0.00000000	          0.00000000	         -3.59350615	          0.00000000	
          3.18300000	          0.00000000	          0.00000000	          0.00000000	          0.00000000	          0.00000000	          0.00000000	         12.82217017	         57.60300619	          5.82023058	          0.50756663	          0.00000000	          0.09902422	          0.00000000	          0.00000000	          0.00000000	          0.00000000	         -3.30113859	          0.00000000	
          3.18400000	          0.00000000	          0.00000000	          0.00000000	          0.00000000	          0.00000000	          0.00000000	         11.35259659	         54.44762809	          5.79128530	          0.50593133	          0.00000000	          0.09939328	          0.00000000	          0.00000000	          0.00000000	          0.00000000	         -3.03191692	          0.00000000	
          3.18500000	          0.00000000	          0.00000000	          0.00000000	          0.00000000	          0.00000000	          0.00000000	          9.98894712	         51.36083638	          5.73029885	          0.50409917	          0.00000000	          0.09941131	          0.00000000	          0.00000000	          0.00000000	          0.00000000	         -2.78317554	          0.00000000	
          3.18600000	          0.00000000	          0.00000000	          0.00000000	          0.00000000	          0.00000000	          0.00000000	          8.72410270	         48.34401819	          5.62472071	          0.50231153	          0.00000000	          0.09900808	          0.00000000	          0.00000000	          0.00000000	          0.00000000	         -2.54818071	          0.00000000	
          3.18700000	          0.00000000	          0.00000000	          0.00000000	          0.00000000	          0.00000000	          0.00000000	          7.55514240	         45.37464830	          5.47087572	          0.50091157	          0.00000000	          0.09814790	          0.00000000	          0.00000000	          0.00000000	          0.00000000	         -2.31976543	          0.00000000	
          3.18800000	          0.00000000	          0.00000000	          0.00000000	          0.00000000	          0.00000000	          0.00000000	          6.47540747	         42.46973953	          5.27645465	          0.50014177	          0.00000000	          0.09713537	          0.00000000	          0.00000000	          0.00000000	          0.00000000	         -2.09659648	          0.00000000	
          3.18900000	          0.00000000	          0.00000000	          0.00000000	          0.00000000	          0.00000000	          0.00000000	          5.47375097	         39.70345084	          5.04994775	          0.49979838	          0.00000000	          0.09659169	          0.00000000	          0.00000000	          0.00000000	          0.00000000	         -1.88442101	          0.00000000	
          3.19000000	          0.00000000	          0.00000000	          0.00000000	          0.00000000	          0.00000000	          0.00000000	          4.53810026	         37.15599923	          4.79624997	          0.49934995	          0.00000000	          0.09698859	          0.00000000	          0.00000000	          0.00000000	          0.00000000	         -1.68842163	          0.00000000	
          3.19100000	          0.00000000	          0.00000000	          0.00000000	          0.00000000	          0.00000000	          0.00000000	          3.65675702	         34.85937662	          4.52372657	          0.49860727	          0.00000000	          0.09816031	          0.00000000	          0.00000000	          0.00000000	          0.00000000	         -1.50634177	          0.00000000	
          3.19200000	          0.00000000	          0.00000000	          0.00000000	          0.00000000	          0.00000000	          0.00000000	          2.82036354	         32.79935757	          4.24479898	          0.49817938	          0.00000000	          0.09956193	          0.00000000	          0.00000000	          0.00000000	          0.00000000	         -1.33263672	          0.00000000	
          3.19300000	          0.00000000	          0.00000000	          0.00000000	          0.00000000	          0.00000000	          0.00000000	          2.02413985	         30.95752066	          3.96715285	          0.49900304	          0.00000000	          0.10109327	          0.00000000	          0.00000000	          0.00000000	          0.00000000	         -1.16611824	          0.00000000	
          3.19400000	          0.00000000	          0.00000000	          0.00000000	          0.00000000	          0.00000000	          0.00000000	          1.27047347	         29.26833798	          3.68695024	          0.50112489	          0.00000000	          0.10312390	          0.00000000	          0.00000000	          0.00000000	          0.00000000	         -1.01027156	          0.00000000	
          3.19500000	          0.00000000	          0.00000000	          0.00000000	          0.00000000	          0.00000000	          0.00000000	          0.57613306	         27.50533721	          3.39060175	          0.50326567	          0.00000000	          0.10563632	          0.00000000	          0.00000000	          0.00000000	          0.00000000	         -0.86818284	          0.00000000	
          3.19600000	          0.00000000	          0.00000000	          0.00000000	          0.00000000	          0.00000000	          0.00000000	         -0.01923676	         25.29571169	          3.05830660	          0.50419217	          0.00000000	          0.10810410	          0.00000000	          0.00000000	          0.00000000	          0.00000000	         -0.73724215	          0.00000000	
          3.19700000	          0.00000000	          0.00000000	          0.00000000	          0.00000000	          0.00000000	          0.00000000	         -0.45710066	         22.27153048	          2.66093276	          0.50378427	          0.00000000	          0.11016589	          0.00000000	          0.00000000	          0.00000000	          0.00000000	         -0.60797878	          0.00000000	
          3.19800000	          0.00000000	          0.00000000	          0.00000000	          0.00000000	          0.00000000	          0.00000000	         -0.68588093	         18.22956919	          2.16771618	          0.50241296	          0.00000000	          0.11183051	          0.00000000	          0.00000000	          0.00000000	          0.00000000	         -0.47120447	          0.00000000	
          3.19900000	          0.00000000	          0.00000000	          0.00000000	          0.00000000	          0.00000000	          0.00000000	         -0.69843097	         13.33922814	          1.58432043	          0.50029821	          0.00000000	          0.11324807	          0.00000000	          0.00000000	          0.00000000	          0.00000000	         -0.32837216	          0.00000000	
          3.20000000	          0.00000000	          0.00000000	          0.00000000	          0.00000000	          0.00000000	          0.00000000	          0.00000000	          0.00000000	          0.00000000	          0.00000000	          0.00000000	          0.00000000	          0.00000000	          0.00000000	          0.00000000	          0.00000000	          0.00000000	          0.00000000	
          3.20100000	          0.00000000	          0.00000000	          0.00000000	          0.00000000	          0.00000000	          0.00000000	          0.00000000	          0.00000000	          0.00000000	          0.00000000	          0.00000000	          0.00000000	          0.00000000	          0.00000000	          0.00000000	          0.00000000	          0.00000000	          0.00000000	
          3.20200000	          0.00000000	          0.00000000	          0.00000000	          0.00000000	          0.00000000	          0.00000000	          0.00000000	          0.00000000	          0.00000000	          0.00000000	          0.00000000	          0.00000000	          0.00000000	          0.00000000	          0.00000000	          0.00000000	          0.00000000	          0.00000000	
          3.20300000	          0.00000000	          0.00000000	          0.00000000	          0.00000000	          0.00000000	          0.00000000	          0.00000000	          0.00000000	          0.00000000	          0.00000000	          0.00000000	          0.00000000	          0.00000000	          0.00000000	          0.00000000	          0.00000000	          0.00000000	          0.00000000	
          3.20400000	          0.00000000	          0.00000000	          0.00000000	          0.00000000	          0.00000000	          0.00000000	          0.00000000	          0.00000000	          0.00000000	          0.00000000	          0.00000000	          0.00000000	          0.00000000	          0.00000000	          0.00000000	          0.00000000	          0.00000000	          0.00000000	
          3.20500000	          0.00000000	          0.00000000	          0.00000000	          0.00000000	          0.00000000	          0.00000000	          0.00000000	          0.00000000	          0.00000000	          0.00000000	          0.00000000	          0.00000000	          0.00000000	          0.00000000	          0.00000000	          0.00000000	          0.00000000	          0.00000000	
          3.20600000	          0.00000000	          0.00000000	          0.00000000	          0.00000000	          0.00000000	          0.00000000	          0.00000000	          0.00000000	          0.00000000	          0.00000000	          0.00000000	          0.00000000	          0.00000000	          0.00000000	          0.00000000	          0.00000000	          0.00000000	          0.00000000	
          3.20700000	          0.00000000	          0.00000000	          0.00000000	          0.00000000	          0.00000000	          0.00000000	          0.00000000	          0.00000000	          0.00000000	          0.00000000	          0.00000000	          0.00000000	          0.00000000	          0.00000000	          0.00000000	          0.00000000	          0.00000000	          0.00000000	
          3.20800000	          0.00000000	          0.00000000	          0.00000000	          0.00000000	          0.00000000	          0.00000000	          0.00000000	          0.00000000	          0.00000000	          0.00000000	          0.00000000	          0.00000000	          0.00000000	          0.00000000	          0.00000000	          0.00000000	          0.00000000	          0.00000000	
          3.20900000	          0.00000000	          0.00000000	          0.00000000	          0.00000000	          0.00000000	          0.00000000	          0.00000000	          0.00000000	          0.00000000	          0.00000000	          0.00000000	          0.00000000	          0.00000000	          0.00000000	          0.00000000	          0.00000000	          0.00000000	          0.00000000	
